<?xml version="1.0" standalone="no"?>
<!DOCTYPE svg PUBLIC "-//W3C//DTD SVG 20010904//EN"
 "http://www.w3.org/TR/2001/REC-SVG-20010904/DTD/svg10.dtd">
<svg version="1.0" xmlns="http://www.w3.org/2000/svg"
 width="196.000000pt" height="166.000000pt" viewBox="0 0 196.000000 166.000000"
 preserveAspectRatio="xMidYMid meet">

<g transform="translate(0.000000,166.000000) scale(0.100000,-0.100000)"
fill="#000000" stroke="none">
<path d="M230 1345 c0 -36 -7 -54 -35 -91 l-35 -46 0 -398 0 -398 40 -51 40
-51 692 0 691 0 43 25 c41 24 94 95 94 125 0 7 14 28 30 47 35 40 39 83 11
129 l-19 32 39 15 c31 12 39 21 39 40 0 28 -12 40 -54 54 -26 8 -31 16 -42 70
-46 228 -246 353 -564 353 -124 0 -235 -19 -316 -55 l-54 -24 0 48 c0 40 -6
54 -35 88 -29 34 -35 49 -35 87 l0 46 -265 0 -265 0 0 -45z m480 -10 c0 -13
-31 -15 -215 -15 -184 0 -215 2 -215 15 0 13 31 15 215 15 184 0 215 -2 215
-15z m43 -99 c22 -29 27 -45 27 -93 0 -54 -3 -60 -40 -97 -51 -51 -97 -141
-105 -210 -7 -50 -9 -54 -38 -60 -40 -8 -57 -23 -57 -53 0 -19 8 -28 39 -40
l39 -15 -19 -32 c-28 -45 -24 -89 9 -128 16 -18 34 -48 40 -66 6 -18 21 -45
33 -60 l21 -27 -214 -3 -213 -3 -32 36 -33 35 0 390 0 389 31 36 31 35 227 0
226 0 28 -34z m645 -101 c182 -43 297 -152 321 -303 l8 -52 -527 0 -527 0 8
50 c27 173 163 284 390 319 81 13 245 5 327 -14z m-593 -426 c44 -40 103 -53
245 -53 143 0 202 13 245 54 18 17 39 19 258 21 131 1 240 -1 243 -4 3 -2 -18
-11 -47 -18 -36 -9 -67 -27 -101 -58 l-50 -45 -41 13 c-87 27 -113 25 -164 -8
-56 -37 -69 -38 -129 -6 -58 31 -70 31 -128 0 -60 -32 -69 -31 -128 6 -52 34
-69 34 -160 9 l-47 -14 -48 46 c-36 33 -63 48 -102 58 -72 17 -51 26 51 22 64
-3 88 -8 103 -23z m410 9 c-32 -19 -251 -22 -305 -5 -43 14 -37 15 140 16 146
0 181 -2 165 -11z m82 -287 c33 -21 64 -44 67 -50 12 -18 34 -13 77 19 60 43
140 70 209 70 68 0 72 -7 34 -58 -47 -61 -52 -62 -484 -62 -311 0 -397 3 -424
14 -33 14 -86 72 -86 94 0 9 73 12 273 12 l274 0 60 -39z m153 36 c0 -2 -13
-13 -29 -25 l-29 -21 -33 25 -33 24 62 0 c34 0 62 -1 62 -3z"/>
<path d="M940 1090 c-23 -23 -27 -50 -7 -50 22 0 57 31 57 51 0 25 -25 24 -50
-1z"/>
<path d="M1187 1092 c-20 -22 -22 -52 -4 -52 16 0 41 27 50 53 9 23 -25 23
-46 -1z"/>
<path d="M1410 1091 c0 -20 35 -51 57 -51 20 0 16 27 -7 50 -25 25 -50 26 -50
1z"/>
<path d="M816 928 c-16 -22 -21 -48 -10 -48 11 0 49 23 56 34 25 37 -20 51
-46 14z"/>
<path d="M1049 928 c4 -13 19 -29 32 -35 22 -11 24 -10 27 9 4 24 -21 48 -50
48 -14 0 -16 -5 -9 -22z"/>
<path d="M1306 934 c-24 -23 -21 -53 4 -47 20 5 50 39 50 55 0 14 -38 8 -54
-8z"/>
<path d="M1530 938 c0 -19 12 -33 38 -47 32 -17 40 -6 21 27 -15 28 -59 43
-59 20z"/>
</g>
</svg>
