<?xml version="1.0" standalone="no"?>
<!DOCTYPE svg PUBLIC "-//W3C//DTD SVG 20010904//EN"
 "http://www.w3.org/TR/2001/REC-SVG-20010904/DTD/svg10.dtd">
<svg version="1.0" xmlns="http://www.w3.org/2000/svg"
 width="715.000000pt" height="205.000000pt" viewBox="0 0 715.000000 205.000000"
 preserveAspectRatio="xMidYMid meet">

<g transform="translate(0.000000,205.000000) scale(0.100000,-0.100000)"
fill="#000000" stroke="none">
<path d="M1100 1415 c0 -36 -7 -54 -35 -91 l-35 -46 0 -398 0 -398 40 -51 40
-51 692 0 691 0 43 25 c41 24 94 95 94 125 0 7 14 28 30 47 35 40 39 83 11
129 l-19 32 39 15 c31 12 39 21 39 40 0 28 -12 40 -54 54 -26 8 -31 16 -42 70
-46 228 -246 353 -564 353 -124 0 -235 -19 -316 -55 l-54 -24 0 48 c0 40 -6
54 -35 88 -29 34 -35 49 -35 87 l0 46 -265 0 -265 0 0 -45z m480 -10 c0 -13
-31 -15 -215 -15 -184 0 -215 2 -215 15 0 13 31 15 215 15 184 0 215 -2 215
-15z m43 -99 c22 -29 27 -45 27 -93 0 -54 -3 -60 -40 -97 -51 -51 -97 -141
-105 -210 -7 -50 -9 -54 -38 -60 -40 -8 -57 -23 -57 -53 0 -19 8 -28 39 -40
l39 -15 -19 -32 c-28 -45 -24 -89 9 -128 16 -18 34 -48 40 -66 6 -18 21 -45
33 -60 l21 -27 -214 -3 -213 -3 -32 36 -33 35 0 390 0 389 31 36 31 35 227 0
226 0 28 -34z m645 -101 c182 -43 297 -152 321 -303 l8 -52 -527 0 -527 0 8
50 c27 173 163 284 390 319 81 13 245 5 327 -14z m-593 -426 c44 -40 103 -53
245 -53 143 0 202 13 245 54 18 17 39 19 258 21 131 1 240 -1 243 -4 3 -2 -18
-11 -47 -18 -36 -9 -67 -27 -101 -58 l-50 -45 -41 13 c-87 27 -113 25 -164 -8
-56 -37 -69 -38 -129 -6 -58 31 -70 31 -128 0 -60 -32 -69 -31 -128 6 -52 34
-69 34 -160 9 l-47 -14 -48 46 c-36 33 -63 48 -102 58 -72 17 -51 26 51 22 64
-3 88 -8 103 -23z m410 9 c-32 -19 -251 -22 -305 -5 -43 14 -37 15 140 16 146
0 181 -2 165 -11z m82 -287 c33 -21 64 -44 67 -50 12 -18 34 -13 77 19 60 43
140 70 209 70 68 0 72 -7 34 -58 -47 -61 -52 -62 -484 -62 -311 0 -397 3 -424
14 -33 14 -86 72 -86 94 0 9 73 12 273 12 l274 0 60 -39z m153 36 c0 -2 -13
-13 -29 -25 l-29 -21 -33 25 -33 24 62 0 c34 0 62 -1 62 -3z"/>
<path d="M1810 1160 c-23 -23 -27 -50 -7 -50 22 0 57 31 57 51 0 25 -25 24
-50 -1z"/>
<path d="M2057 1162 c-20 -22 -22 -52 -4 -52 16 0 41 27 50 53 9 23 -25 23
-46 -1z"/>
<path d="M2280 1161 c0 -20 35 -51 57 -51 20 0 16 27 -7 50 -25 25 -50 26 -50
1z"/>
<path d="M1686 998 c-16 -22 -21 -48 -10 -48 11 0 49 23 56 34 25 37 -20 51
-46 14z"/>
<path d="M1919 998 c4 -13 19 -29 32 -35 22 -11 24 -10 27 9 4 24 -21 48 -50
48 -14 0 -16 -5 -9 -22z"/>
<path d="M2176 1004 c-24 -23 -21 -53 4 -47 20 5 50 39 50 55 0 14 -38 8 -54
-8z"/>
<path d="M2400 1008 c0 -19 12 -33 38 -47 32 -17 40 -6 21 27 -15 28 -59 43
-59 20z"/>
<path d="M2871 1371 c-7 -13 -11 -169 -11 -451 0 -418 4 -481 31 -465 5 4 9
186 9 465 0 279 -4 461 -9 465 -6 3 -15 -3 -20 -14z"/>
<path d="M3175 1361 c-162 -76 -192 -285 -60 -417 42 -42 61 -54 107 -64 46
-11 63 -10 111 4 56 16 109 52 128 87 8 16 5 21 -15 31 -23 10 -28 8 -46 -14
-27 -34 -79 -58 -130 -58 -160 0 -236 226 -116 347 68 68 160 71 224 7 38 -38
40 -39 65 -20 17 13 16 16 -15 52 -18 20 -47 43 -65 50 -47 20 -140 17 -188
-5z"/>
<path d="M4380 1310 c0 -57 -1 -60 -25 -60 -20 0 -25 -5 -25 -25 0 -20 5 -25
25 -25 l25 0 0 -132 c0 -86 5 -142 13 -158 17 -33 66 -46 118 -31 33 10 40 16
37 34 -3 19 -8 21 -45 19 -57 -5 -63 11 -63 152 l0 116 45 0 c41 0 45 2 45 25
0 23 -4 25 -45 25 l-45 0 0 60 0 60 -30 0 -30 0 0 -60z"/>
<path d="M3583 1231 c-45 -21 -49 -27 -33 -51 8 -12 14 -12 45 3 53 25 126 23
152 -5 21 -24 37 -73 29 -87 -3 -5 -25 -4 -49 2 -104 24 -209 -29 -209 -105 0
-19 5 -45 12 -57 17 -32 70 -61 110 -61 37 0 113 30 124 49 11 18 26 13 26 -9
0 -22 34 -44 56 -36 16 6 19 42 4 51 -5 3 -10 48 -10 98 0 113 -11 155 -50
192 -27 26 -40 30 -98 33 -51 2 -77 -2 -109 -17z m167 -180 c30 -8 36 -32 19
-72 -15 -36 -60 -62 -111 -62 -82 0 -117 91 -49 128 27 15 98 18 141 6z"/>
<path d="M3940 1065 l0 -185 30 0 30 0 0 111 c0 127 14 165 74 193 47 22 73
20 101 -9 24 -23 25 -29 25 -160 l0 -135 30 0 30 0 0 140 c0 194 -17 230 -109
230 -51 0 -89 -15 -123 -48 l-28 -26 0 37 c0 34 -2 37 -30 37 l-30 0 0 -185z"/>
<path d="M4705 1236 c-83 -38 -129 -135 -106 -224 38 -139 216 -188 316 -87
46 46 -2 65 -51 20 -55 -51 -155 -32 -190 36 -30 59 -29 59 142 59 l157 0 -7
42 c-11 67 -36 108 -85 139 -51 33 -123 39 -176 15z m136 -41 c32 -17 69 -69
69 -97 0 -16 -13 -18 -125 -18 l-125 0 0 24 c0 28 43 84 74 96 33 14 74 11
107 -5z"/>
<path d="M5128 1237 c-65 -29 -108 -99 -108 -174 0 -52 26 -118 56 -145 30
-26 89 -48 131 -48 66 1 166 61 148 89 -10 17 -40 13 -60 -9 -38 -43 -122 -44
-167 -3 -21 19 -48 65 -48 83 0 6 53 10 155 10 l155 0 0 35 c0 65 -53 141
-113 164 -37 14 -115 13 -149 -2z m169 -71 c19 -21 33 -46 33 -61 l0 -25 -125
0 c-138 0 -140 1 -110 61 41 78 142 90 202 25z"/>
<path d="M5470 1065 l0 -185 30 0 30 0 0 119 c0 105 2 121 21 145 40 51 105
70 142 42 27 -21 37 -71 37 -193 l0 -113 30 0 30 0 0 123 c-1 146 -10 194 -45
225 -47 40 -141 26 -202 -31 l-23 -20 0 36 c0 33 -3 37 -25 37 l-25 0 0 -185z"/>
<path d="M3034 727 c-3 -8 -3 -56 -2 -108 l3 -94 78 -3 c64 -2 77 0 77 13 0
12 -13 15 -65 15 l-65 0 0 35 0 35 60 0 c33 0 60 4 60 10 0 6 -27 10 -60 10
l-60 0 0 35 0 35 65 0 c51 0 65 3 65 15 0 20 -148 22 -156 2z"/>
<path d="M3600 630 c0 -91 3 -110 15 -110 11 0 15 12 15 50 l0 50 54 0 55 0 3
-47 c2 -26 9 -48 16 -51 9 -3 12 23 12 108 0 85 -3 111 -12 108 -7 -3 -14 -23
-16 -46 -3 -42 -4 -42 -42 -42 -21 0 -45 -3 -54 -6 -13 -5 -16 2 -16 45 0 39
-4 51 -15 51 -12 0 -15 -19 -15 -110z"/>
<path d="M4190 630 c0 -85 3 -111 13 -107 8 2 12 33 12 107 0 74 -4 105 -12
108 -10 3 -13 -23 -13 -108z"/>
<path d="M4360 631 c0 -90 3 -111 15 -111 10 0 15 16 17 63 3 62 3 62 33 62
30 0 30 0 33 -62 2 -47 7 -63 17 -63 22 0 20 108 -1 139 -14 19 -23 22 -50 18
-31 -5 -33 -4 -36 25 -2 18 -9 33 -15 36 -10 3 -13 -23 -13 -107z"/>
<path d="M3408 695 c-9 -19 -12 -38 -7 -41 5 -3 9 -24 9 -47 0 -49 22 -87 51
-87 25 0 24 16 -1 30 -25 14 -29 94 -5 104 8 3 15 10 15 16 0 5 -7 10 -15 10
-9 0 -15 9 -15 25 0 35 -13 31 -32 -10z"/>
<path d="M4258 695 c-9 -19 -12 -38 -7 -41 5 -3 9 -24 9 -47 0 -49 22 -87 51
-87 25 0 24 16 -1 30 -25 14 -29 94 -5 104 8 3 15 10 15 16 0 5 -7 10 -15 10
-9 0 -15 9 -15 25 0 35 -13 31 -32 -10z"/>
<path d="M3269 668 c-26 -21 -49 -61 -49 -85 0 -41 33 -63 95 -61 l55 2 0 50
c0 68 -17 100 -55 104 -17 2 -37 -3 -46 -10z m65 -34 c18 -48 -1 -84 -45 -84
-33 0 -43 13 -35 45 12 48 66 74 80 39z"/>
<path d="M3845 655 c-32 -31 -34 -86 -5 -115 26 -26 101 -28 121 -3 13 15 11
16 -24 10 -41 -6 -87 6 -87 23 0 5 22 10 49 10 88 0 103 20 52 71 -36 36 -73
37 -106 4z m83 -17 c21 -21 13 -28 -33 -28 -25 0 -45 4 -45 8 0 15 24 32 45
32 12 0 26 -5 33 -12z"/>
<path d="M4047 669 c-9 -5 -24 -23 -32 -39 -36 -69 -5 -110 81 -108 l56 2 -5
63 c-2 35 -10 70 -17 78 -14 17 -57 19 -83 4z m67 -35 c19 -50 -4 -88 -51 -82
-21 2 -29 9 -31 28 -5 47 66 95 82 54z"/>
<path d="M4520 667 c0 -7 9 -40 20 -72 27 -79 26 -103 -5 -111 -32 -8 -33 -24
-1 -24 32 0 46 20 77 109 14 42 30 84 34 94 5 12 3 17 -8 17 -8 0 -24 -23 -37
-52 l-22 -53 -17 49 c-17 48 -41 73 -41 43z"/>
</g>
</svg>
